<svg xmlns="http://www.w3.org/2000/svg" version="1.1" xmlns:xlink="http://www.w3.org/1999/xlink" xmlns:svgjs="http://svgjs.dev/svgjs" viewBox="0 0 800 800"><defs><symbol id="bbburst-shape-1" viewBox="0 0 194 167"><path d="m97 0 96.129 166.5H.871L97 0Z"></path></symbol><symbol id="bbburst-shape-4" viewBox="0 0 149 143"><path d="M71.647 2.781c.898-2.764 4.808-2.764 5.706 0l15.445 47.534a3 3 0 0 0 2.853 2.073h49.98c2.906 0 4.115 3.719 1.764 5.427L106.96 87.193a2.999 2.999 0 0 0-1.09 3.354l15.445 47.534c.898 2.764-2.266 5.062-4.617 3.354l-40.435-29.378a3 3 0 0 0-3.526 0l-40.435 29.378c-2.351 1.708-5.515-.59-4.617-3.354L43.13 90.547a3 3 0 0 0-1.09-3.354L1.605 57.815c-2.35-1.708-1.142-5.427 1.764-5.427h49.98a3 3 0 0 0 2.853-2.073L71.647 2.781Z"></path></symbol><symbol id="bbburst-shape-6" viewBox="0 0 133 116"><path d="M59.7487 10.2513c-13.6683-13.66839-35.8291-13.66839-49.4974 0-13.66839 13.6683-13.66839 35.8291 0 49.4974l49.4974-49.4974ZM66.5 66.5 41.7513 91.2487 66.5 115.997l24.7487-24.7483L66.5 66.5Zm56.249-6.7513c13.668-13.6683 13.668-35.8291 0-49.4974-13.669-13.66839-35.8294-13.66839-49.4977 0l49.4977 49.4974Zm-112.4977 0 31.5 31.5 49.4974-49.4974-31.5-31.5-49.4974 49.4974Zm80.9974 31.5 31.5003-31.5-49.4977-49.4974-31.5 31.5 49.4974 49.4974Z"></path></symbol><symbol id="bbburst-shape-8" viewBox="0 0 87 168"><path d="m12 12 31.2546 18.0749c16.4102 9.4902 20.014 31.6325 7.4603 45.8369L36.3296 92.1884c-12.5684 14.2206-8.9394 36.3916 7.5068 45.8636L75 156" stroke-width="14" stroke-linecap="round" stroke-linejoin="round"></path></symbol><symbol id="bbburst-shape-9" viewBox="0 0 182 172"><path d="M13.5809 69.845 91 13.5967l77.419 56.2483-29.571 91.012H43.1524L13.5809 69.845Z" stroke-width="22"></path></symbol><symbol id="bbburst-shape-10" viewBox="0 0 145 145"><circle cx="72.5" cy="72.5" r="61.5" fill="none" stroke-width="22"></circle></symbol><symbol id="bbburst-shape-14" viewBox="0 0 185 109"><path d="M168 16.5C168 58.1975 134.197 92 92.5 92 50.8025 92 17 58.1975 17 16.5" stroke-width="33" stroke-linecap="round"></path></symbol></defs><use xlink:href="#bbburst-shape-4" width="39.15932487668379" opacity="0.1725834266856342" transform="matrix(0.7430070284853889,-0.669283613740328,0.669283613740328,0.7430070284853889,-147.61227727442895,377.101138033369)" fill="#82aaff"></use><use xlink:href="#bbburst-shape-4" width="13.066788570395031" opacity="0.8512189095910162" transform="matrix(0.7105520464580137,-0.7036446470160408,0.7036446470160408,0.7105520464580137,73.1877204860549,67.24020873086903)" fill="#ffa6d5"></use><use xlink:href="#bbburst-shape-14" width="31.942581720333376" opacity="0.5673444165537875" transform="matrix(0.9890569884821414,-0.14753397417082306,0.14753397417082306,0.9890569884821414,169.49362990516408,123.66436435836454)" fill="none" stroke="#4772ff"></use><use xlink:href="#bbburst-shape-14" width="39.23374698645588" opacity="0.1824632195177187" transform="matrix(0.9955262285170999,0.09448559855617603,-0.09448559855617603,0.9955262285170999,56.12398769335491,64.80851326199644)" fill="none" stroke="#ffbd9b"></use><use xlink:href="#bbburst-shape-10" width="13.198184118079926" opacity="0.87441301889516" transform="matrix(0.9876468066193679,0.15669647530996042,-0.15669647530996042,0.9876468066193679,512.6751383969832,3.86895809962715)" fill="none" stroke="#4772ff"></use><use xlink:href="#bbburst-shape-8" width="33.29005573301685" opacity="0.5336764868769677" transform="matrix(0.9202000051994398,0.3914485284567448,-0.3914485284567448,0.9202000051994398,751.0924536087059,22.83224272175073)" fill="none" stroke="#ffbd9b"></use><use xlink:href="#bbburst-shape-14" width="43.49883040943875" opacity="-0.08410638324046849" transform="matrix(0.9066636189022617,0.4218543376084385,-0.4218543376084385,0.9066636189022617,898.3879709659892,368.6857924453835)" fill="none" stroke="#7847ff"></use><use xlink:href="#bbburst-shape-6" width="25.373255409915117" opacity="0.5658993684673352" transform="matrix(0.9555285958656826,0.2948984613099176,-0.2948984613099176,0.9555285958656826,686.3100294213574,88.80857018263856)" fill="#4772ff"></use><use xlink:href="#bbburst-shape-4" width="50.487473001721455" opacity="-0.0712680875020546" transform="matrix(0.9697618978959747,-0.24405298889625815,0.24405298889625815,0.9697618978959747,-67.50912509662061,-317.9703216263806)" fill="#82aaff"></use><use xlink:href="#bbburst-shape-4" width="19.756005127328454" opacity="0.809153810233426" transform="matrix(0.9277660632065003,0.37316233995717196,-0.37316233995717196,0.9277660632065003,620.7423550178389,54.74207495768576)" fill="#82aaff"></use><use xlink:href="#bbburst-shape-4" width="14.814282813654401" opacity="0.778445294032447" transform="matrix(0.7587330325751097,0.6514017080721983,-0.6514017080721983,0.7587330325751097,693.5250695999587,-0.23508304221513754)" fill="#82aaff"></use><use xlink:href="#bbburst-shape-10" width="32.0390400457533" opacity="0.39439854065342805" transform="matrix(0.9549414278963965,-0.29679432152113594,0.29679432152113594,0.9549414278963965,523.9360720819711,110.69003993925111)" fill="none" stroke="#82aaff"></use><use xlink:href="#bbburst-shape-9" width="8.725411289203079" opacity="0.9460565768716013" transform="matrix(0.7677359645129851,0.640766329322411,-0.640766329322411,0.7677359645129851,642.8797841902925,112.13169982857158)" fill="none" stroke="#4772ff"></use><use xlink:href="#bbburst-shape-1" width="22.84166184258204" opacity="0.6956725601838357" transform="matrix(0.9957984033450423,0.09157259358271072,-0.09157259358271072,0.9957984033450423,438.9204228224964,136.92779326984714)" fill="#ffa6d5"></use><use xlink:href="#bbburst-shape-8" width="36.627708128753525" opacity="0.16868617521888496" transform="matrix(0.9790073366446387,-0.2038250102317452,0.2038250102317452,0.9790073366446387,535.8695139604004,-278.6699509387819)" fill="none" stroke="#ffa6d5"></use><use xlink:href="#bbburst-shape-9" width="14.662970101662598" opacity="0.8874308263037501" transform="matrix(0.8618569530398524,0.5071514492701974,-0.5071514492701974,0.8618569530398524,609.6503524528248,100.39793976669)" fill="none" stroke="#ffa6d5"></use><use xlink:href="#bbburst-shape-10" width="27.007005579794345" opacity="0.5472603448938571" transform="matrix(0.9996319443119455,-0.027128875964912706,0.027128875964912706,0.9996319443119455,265.3167006350158,171.78425732474398)" fill="none" stroke="#7847ff"></use><use xlink:href="#bbburst-shape-6" width="27.068295098877496" opacity="0.4299401311278803" transform="matrix(0.8455054220140106,0.5339668354354133,-0.5339668354354133,0.8455054220140106,688.9459275566409,295.9659743717753)" fill="#7847ff"></use><use xlink:href="#bbburst-shape-9" width="45.38103758080227" opacity="0.1868082793803626" transform="matrix(0.8383831128956563,0.5450814214513179,-0.5450814214513179,0.8383831128956563,329.0720396252565,-194.86492180325095)" fill="none" stroke="#7847ff"></use><use xlink:href="#bbburst-shape-10" width="12.546458152199413" opacity="0.8965636953668419" transform="matrix(0.7130829174455279,-0.7010797050602552,0.7010797050602552,0.7130829174455279,78.7165636199573,148.20257380646632)" fill="none" stroke="#ffa6d5"></use><use xlink:href="#bbburst-shape-9" width="10.87751013222228" opacity="0.8746695088124734" transform="matrix(0.9888675250012758,-0.1487985819752699,0.1487985819752699,0.9888675250012758,316.76191211797567,58.52683995328738)" fill="none" stroke="#7847ff"></use><use xlink:href="#bbburst-shape-9" width="20.453620430903307" opacity="0.8156940281531851" transform="matrix(0.9636163749481428,-0.26728913545410016,0.26728913545410016,0.9636163749481428,274.4569101740451,-65.32221225700124)" fill="none" stroke="#ffbd9b"></use><use xlink:href="#bbburst-shape-4" width="24.48379197926209" opacity="0.6439977037195568" transform="matrix(0.7089847029933554,-0.7052238587295694,0.7052238587295694,0.7089847029933554,-2.377827966531015,10.14515283583512)" fill="#ffa6d5"></use><use xlink:href="#bbburst-shape-4" width="35.37135166850965" opacity="0.38567583475525613" transform="matrix(0.9013845314214807,0.4330195451871401,-0.4330195451871401,0.9013845314214807,370.9260917917092,-172.40088564195307)" fill="#7847ff"></use><use xlink:href="#bbburst-shape-10" width="31.907651485148268" opacity="0.12414839182219795" transform="matrix(0.923674461817388,0.3831781421041116,-0.3831781421041116,0.923674461817388,701.8776181208572,-334.27532300427276)" fill="none" stroke="#7847ff"></use><use xlink:href="#bbburst-shape-6" width="20.60184194198491" opacity="0.6543813966804359" transform="matrix(0.9726132690911711,0.23242940603070286,-0.23242940603070286,0.9726132690911711,633.7196829096185,-29.62903169580278)" fill="#82aaff"></use><use xlink:href="#bbburst-shape-8" width="14.491870091361518" opacity="0.8311113990430885" transform="matrix(0.9939424943905141,-0.10990140055869535,0.10990140055869535,0.9939424943905141,281.3828892138555,38.2317932028505)" fill="none" stroke="#ffa6d5"></use><use xlink:href="#bbburst-shape-9" width="38.64219673024762" opacity="0.5134532027116299" transform="matrix(0.9686921418048886,-0.2482650486988807,0.2482650486988807,0.9686921418048886,175.91444859687175,-174.5091994060071)" fill="none" stroke="#ffbd9b"></use><use xlink:href="#bbburst-shape-14" width="17.624176861107415" opacity="0.7967975860713427" transform="matrix(0.9728277111906034,-0.23153022338271936,0.23153022338271936,0.9728277111906034,240.61222220651825,83.45353715962807)" fill="none" stroke="#ffbd9b"></use><use xlink:href="#bbburst-shape-9" width="42.48684909939534" opacity="0.05593073088159839" transform="matrix(0.9986407384690492,0.052121737020095725,-0.052121737020095725,0.9986407384690492,754.31531225815,-234.71577528891083)" fill="none" stroke="#82aaff"></use><use xlink:href="#bbburst-shape-9" width="16.643925228160686" opacity="0.7685917307099788" transform="matrix(0.984686553249163,-0.174334138510744,0.174334138510744,0.984686553249163,218.17006345525516,0.23259825590645278)" fill="none" stroke="#ffa6d5"></use><use xlink:href="#bbburst-shape-4" width="29.717116374654058" opacity="0.1762599064279281" transform="matrix(0.9717580697257392,0.23597935062819686,-0.23597935062819686,0.9717580697257392,401.27417916592486,-354.4216488924501)" fill="#ffa6d5"></use><use xlink:href="#bbburst-shape-8" width="49.636814547823924" opacity="0.22112516300470497" transform="matrix(0.9915933074125725,-0.12939363467572765,0.12939363467572765,0.9915933074125725,364.0466752502292,-341.58188615868136)" fill="none" stroke="#ffa6d5"></use><use xlink:href="#bbburst-shape-1" width="36.84391668895668" opacity="0.508362812955732" transform="matrix(0.9577089570816598,-0.28773868965705585,0.28773868965705585,0.9577089570816598,83.47986615730167,-100.883362750647)" fill="#7847ff"></use><use xlink:href="#bbburst-shape-1" width="43.80041108917412" opacity="-0.06901106814586111" transform="matrix(0.8491896431733122,-0.5280880134288057,0.5280880134288057,0.8491896431733122,500.1361536713098,-278.14006833326135)" fill="#82aaff"></use><use xlink:href="#bbburst-shape-4" width="17.20504557049939" opacity="0.7097293379346283" transform="matrix(0.8657211046299149,-0.5005266915943244,0.5005266915943244,0.8657211046299149,254.61496074078963,172.85726239012916)" fill="#7847ff"></use><use xlink:href="#bbburst-shape-1" width="28.91129142983736" opacity="0.25538101490294673" transform="matrix(0.9264592955055632,0.37639497043841547,-0.37639497043841547,0.9264592955055632,821.6573258098438,-153.00436389957)" fill="#ffa6d5"></use><use xlink:href="#bbburst-shape-1" width="35.998113448539215" opacity="0.05790767033189581" transform="matrix(0.8284947955519724,0.5599967622614398,-0.5599967622614398,0.8284947955519724,382.05240050928023,-299.4803875475208)" fill="#ffa6d5"></use><use xlink:href="#bbburst-shape-10" width="14.55594234902837" opacity="0.8462174704981146" transform="matrix(0.9970491416064385,-0.07676593790128519,0.07676593790128519,0.9970491416064385,421.6251800789917,-33.44906295084991)" fill="none" stroke="#4772ff"></use><use xlink:href="#bbburst-shape-10" width="28.30974376534456" opacity="0.42073587807174717" transform="matrix(0.9924937872763622,0.12229506211545522,-0.12229506211545522,0.9924937872763622,431.0332758983083,-259.3692090291438)" fill="none" stroke="#7847ff"></use><use xlink:href="#bbburst-shape-4" width="17.355551959662" opacity="0.6740397469414012" transform="matrix(0.9509079014898576,0.30947401003017255,-0.30947401003017255,0.9509079014898576,627.1741019370018,-78.17516055344356)" fill="#82aaff"></use><use xlink:href="#bbburst-shape-9" width="20.0818255620427" opacity="0.6939789046908631" transform="matrix(0.8193135892140275,-0.573345657112032,0.573345657112032,0.8193135892140275,297.6155997284461,103.78844871936906)" fill="none" stroke="#7847ff"></use><use xlink:href="#bbburst-shape-10" width="16.57060983995448" opacity="0.8480284925326823" transform="matrix(0.9675079632624968,0.2528405446593864,-0.2528405446593864,0.9675079632624968,430.3000333284116,-16.124742786927584)" fill="none" stroke="#82aaff"></use><use xlink:href="#bbburst-shape-8" width="36.918070875697154" opacity="0.36013437026700945" transform="matrix(0.9643946556992602,-0.2644672910942022,0.2644672910942022,0.9643946556992602,194.36889030009718,-256.8800728185223)" fill="none" stroke="#7847ff"></use><use xlink:href="#bbburst-shape-10" width="21.81966485616734" opacity="0.5535994630487795" transform="matrix(0.8827104149959879,-0.4699173579020154,0.4699173579020154,0.8827104149959879,370.59674070991673,-57.79220339885933)" fill="none" stroke="#ffbd9b"></use><use xlink:href="#bbburst-shape-9" width="32.685408682446365" opacity="0.12230529159219983" transform="matrix(0.9729632055326098,-0.23096017119778123,0.23096017119778123,0.9729632055326098,458.78382409410654,372.2386709697984)" fill="none" stroke="#82aaff"></use><use xlink:href="#bbburst-shape-4" width="46.299751417000635" opacity="0.3355902335357249" transform="matrix(0.9554357835102092,0.29519902369119166,-0.29519902369119166,0.9554357835102092,224.96244913172475,-115.29305004487748)" fill="#82aaff"></use><use xlink:href="#bbburst-shape-1" width="45.426064208079524" opacity="0.06918106772711119" transform="matrix(0.936033903312379,-0.3519098348295938,0.3519098348295938,0.936033903312379,488.4197973951751,369.4004581097381)" fill="#ffa6d5"></use><use xlink:href="#bbburst-shape-9" width="20.340166869004324" opacity="0.7539267177010794" transform="matrix(0.9983977036640207,0.05658644111808291,-0.05658644111808291,0.9983977036640207,316.4958154217771,-55.27282424739906)" fill="none" stroke="#82aaff"></use><use xlink:href="#bbburst-shape-8" width="32.85590089463655" opacity="0.5696299799168592" transform="matrix(0.9895808808079366,0.14397805506183328,-0.14397805506183328,0.9895808808079366,438.119025086495,195.4421981942453)" fill="none" stroke="#ffa6d5"></use><use xlink:href="#bbburst-shape-10" width="36.129072193205864" opacity="0.3187460900078035" transform="matrix(0.998537047323288,0.05407185148383462,-0.05407185148383462,0.998537047323288,661.5233434591255,165.29591758259988)" fill="none" stroke="#82aaff"></use><use xlink:href="#bbburst-shape-9" width="36.20994681603234" opacity="0.47607299445266793" transform="matrix(0.98191592837504,-0.189317483617819,0.189317483617819,0.98191592837504,475.2476257397934,175.02184548536098)" fill="none" stroke="#82aaff"></use><use xlink:href="#bbburst-shape-4" width="31.099365274791527" opacity="0.2787804716831348" transform="matrix(0.792923613072303,-0.6093210515256836,0.6093210515256836,0.792923613072303,-150.94542433463954,227.83892541353316)" fill="#ffbd9b"></use><use xlink:href="#bbburst-shape-10" width="29.73051858925356" opacity="0.08581419579789995" transform="matrix(0.993256913923833,0.11593404565744939,-0.11593404565744939,0.993256913923833,792.3938141800368,198.6364617799586)" fill="none" stroke="#7847ff"></use><use xlink:href="#bbburst-shape-8" width="32.119202435353344" opacity="0.09195346493241674" transform="matrix(0.9880218149178815,0.15431426779911006,-0.15431426779911006,0.9880218149178815,243.79491928548055,357.47694621551494)" fill="none" stroke="#7847ff"></use><use xlink:href="#bbburst-shape-6" width="26.528790939249088" opacity="0.6341275697626696" transform="matrix(0.863845480512844,0.5037568717124696,-0.5037568717124696,0.863845480512844,437.4921659081332,-14.147813929769427)" fill="#4772ff"></use><use xlink:href="#bbburst-shape-4" width="42.546688397196334" opacity="0.32768356780110874" transform="matrix(0.898651203320819,-0.4386638972722099,0.4386638972722099,0.898651203320819,40.047988765337806,303.2425723350808)" fill="#82aaff"></use><use xlink:href="#bbburst-shape-4" width="16.4382783395386" opacity="0.7699017478978747" transform="matrix(0.8999125315015283,0.43607044803163497,-0.43607044803163497,0.8999125315015283,646.6367218176167,-29.742966765349422)" fill="#82aaff"></use><use xlink:href="#bbburst-shape-1" width="39.97989186105272" opacity="0.3134790630278401" transform="matrix(0.7806682920348547,-0.6249456118826525,0.6249456118826525,0.7806682920348547,309.18522902214124,355.0351057175243)" fill="#82aaff"></use><use xlink:href="#bbburst-shape-4" width="34.270908054684966" opacity="0.24377061289935287" transform="matrix(0.9984987412174383,0.05477466373416733,-0.05477466373416733,0.9984987412174383,238.34653611915417,-297.12357552593966)" fill="#82aaff"></use><use xlink:href="#bbburst-shape-6" width="11.045578691913656" opacity="0.9022139201720318" transform="matrix(0.8600183006345926,0.5102631895145753,-0.5102631895145753,0.8600183006345926,597.9251637829802,9.19421993845964)" fill="#7847ff"></use><use xlink:href="#bbburst-shape-8" width="11.407809978707888" opacity="0.9121398815354814" transform="matrix(0.8071055816186352,-0.5904071308174086,0.5904071308174086,0.8071055816186352,187.56675405026678,52.949944893175314)" fill="none" stroke="#82aaff"></use><use xlink:href="#bbburst-shape-1" width="23.032737310993294" opacity="0.6245150957239287" transform="matrix(0.9836784244501805,0.1799354252814339,-0.1799354252814339,0.9836784244501805,583.8044595949642,120.16138078084498)" fill="#ffa6d5"></use><use xlink:href="#bbburst-shape-10" width="23.699833338264686" opacity="0.5795635637650267" transform="matrix(0.9440706925512599,0.3297431234548867,-0.3297431234548867,0.9440706925512599,599.18532256382,190.6180592194666)" fill="none" stroke="#82aaff"></use><use xlink:href="#bbburst-shape-1" width="44.947821510004616" opacity="-0.07145764781825426" transform="matrix(0.9870463482314323,-0.1604353653126204,0.1604353653126204,0.9870463482314323,-24.77707498564603,352.2679819855052)" fill="#7847ff"></use><use xlink:href="#bbburst-shape-9" width="21.175728092853284" opacity="0.7772995893051208" transform="matrix(0.9803651702098155,-0.19719060078888012,0.19719060078888012,0.9803651702098155,409.3599006109423,-7.872932615363595)" fill="none" stroke="#7847ff"></use><use xlink:href="#bbburst-shape-6" width="43.66236004495637" opacity="0.19313886679480186" transform="matrix(0.9571178678458443,0.2896987867600154,-0.2896987867600154,0.9571178678458443,138.93691685381398,-60.3243061015819)" fill="#82aaff"></use><use xlink:href="#bbburst-shape-9" width="25.72503899659319" opacity="0.5420448695377355" transform="matrix(0.9720667387098448,0.2347046132780656,-0.2347046132780656,0.9720667387098448,597.0832612400484,-162.5742486799637)" fill="none" stroke="#ffbd9b"></use><use xlink:href="#bbburst-shape-10" width="9.580098341866348" opacity="0.9275032276790823" transform="matrix(0.759748540022278,-0.6502170068015886,0.6502170068015886,0.759748540022278,103.69167754970584,97.57489302349717)" fill="none" stroke="#7847ff"></use><use xlink:href="#bbburst-shape-10" width="26.44689398927254" opacity="0.6945245173606375" transform="matrix(0.960504535270671,-0.27826433067224454,0.27826433067224454,0.960504535270671,180.269874433842,118.13584198400918)" fill="none" stroke="#7847ff"></use><use xlink:href="#bbburst-shape-10" width="21.893260469389435" opacity="0.6204236533587287" transform="matrix(0.9676900851768557,-0.25214261648997316,0.25214261648997316,0.9676900851768557,125.99572883374465,68.14309857631486)" fill="none" stroke="#7847ff"></use><use xlink:href="#bbburst-shape-10" width="22.399256847645216" opacity="0.6714350529041242" transform="matrix(0.8349980673148492,0.5502528760310723,-0.5502528760310723,0.8349980673148492,670.8759666106073,-75.23842236875254)" fill="none" stroke="#ffbd9b"></use><use xlink:href="#bbburst-shape-8" width="23.409521172923647" opacity="0.68586453532213" transform="matrix(0.974346202743282,-0.2250543872039538,0.2250543872039538,0.974346202743282,242.51711354389306,-116.87550680904428)" fill="none" stroke="#ffbd9b"></use><use xlink:href="#bbburst-shape-6" width="29.668658705864672" opacity="0.5818263605696623" transform="matrix(0.9703377434805018,-0.24175331140889852,0.24175331140889852,0.9703377434805018,255.8806380110289,-169.80628717401768)" fill="#ffa6d5"></use><use xlink:href="#bbburst-shape-4" width="34.555090717818395" opacity="0.38838634065006294" transform="matrix(0.7814803059974116,-0.623929908994746,0.623929908994746,0.7814803059974116,328.530255687458,-99.38495216968357)" fill="#ffa6d5"></use><use xlink:href="#bbburst-shape-10" width="11.213356639568424" opacity="0.9132547412822241" transform="matrix(0.9468186946002628,-0.32176755516281375,0.32176755516281375,0.9468186946002628,239.14446323176037,-5.26729360613092)" fill="none" stroke="#7847ff"></use><use xlink:href="#bbburst-shape-10" width="35.15989447380791" opacity="0.39945167327813" transform="matrix(0.9812318155851533,-0.1928318544314287,0.1928318544314287,0.9812318155851533,96.29340645910607,181.82656824661763)" fill="none" stroke="#ffa6d5"></use><use xlink:href="#bbburst-shape-8" width="40.37328611643534" opacity="0.3929923318328852" transform="matrix(0.9546637252258381,0.2976863647161648,-0.2976863647161648,0.9546637252258381,502.7996178188542,285.2622334813138)" fill="none" stroke="#ffa6d5"></use><use xlink:href="#bbburst-shape-6" width="43.482401937105344" opacity="0.09384131510389249" transform="matrix(0.8498490354019066,0.5270262014610364,-0.5270262014610364,0.8498490354019066,236.13600931500076,-149.8939289369615)" fill="#4772ff"></use><use xlink:href="#bbburst-shape-4" width="41.91806407084567" opacity="0.2198526442250226" transform="matrix(0.9917697229593455,-0.12803443529434955,0.12803443529434955,0.9917697229593455,406.73192741924083,348.1383823682624)" fill="#4772ff"></use><use xlink:href="#bbburst-shape-6" width="20.859182649640033" opacity="0.674623600909847" transform="matrix(0.9429162726068299,-0.3330298828232122,0.3330298828232122,0.9429162726068299,209.02373242411977,164.65930264759805)" fill="#4772ff"></use><use xlink:href="#bbburst-shape-9" width="29.99579349178891" opacity="0.319029240591274" transform="matrix(0.9994713244382862,0.03251263793631518,-0.03251263793631518,0.9994713244382862,695.2930213709599,-74.86425200056038)" fill="none" stroke="#7847ff"></use><use xlink:href="#bbburst-shape-4" width="18.590300594331048" opacity="0.7294776281217135" transform="matrix(0.9999367578012667,0.011246350425401458,-0.011246350425401458,0.9999367578012667,494.8294746469762,69.89579250173176)" fill="#7847ff"></use><use xlink:href="#bbburst-shape-10" width="12.96867047120211" opacity="0.8022365668769659" transform="matrix(0.9643365000500874,0.26467926755064863,-0.26467926755064863,0.9643365000500874,514.6633817396596,100.2617595133346)" fill="none" stroke="#4772ff"></use><use xlink:href="#bbburst-shape-1" width="34.14938229583238" opacity="0.18878122335841252" transform="matrix(0.9796776208431128,0.20057856121524567,-0.20057856121524567,0.9796776208431128,821.3749079708674,76.73521754357614)" fill="#4772ff"></use><use xlink:href="#bbburst-shape-10" width="10.553276295006768" opacity="0.9672523166881488" transform="matrix(0.9281885206863654,-0.37211029287841074,0.37211029287841074,0.9281885206863654,241.62325154309067,16.699491000830733)" fill="none" stroke="#ffa6d5"></use><use xlink:href="#bbburst-shape-6" width="35.089801078453036" opacity="0.4944592905235884" transform="matrix(0.7137884698025097,0.7003613498594792,-0.7003613498594792,0.7137884698025097,443.1510804545162,65.23086828569552)" fill="#82aaff"></use><use xlink:href="#bbburst-shape-6" width="39.85527561558545" opacity="0.07642676250555636" transform="matrix(0.8703958235062969,-0.4923526281262195,0.4923526281262195,0.8703958235062969,-172.40127743033935,272.56404265085575)" fill="#ffa6d5"></use><use xlink:href="#bbburst-shape-8" width="18.727971255287386" opacity="0.7050940093328462" transform="matrix(0.966140968131757,0.2580147858116493,-0.2580147858116493,0.966140968131757,497.1232525392436,-121.54702302941911)" fill="none" stroke="#ffbd9b"></use><use xlink:href="#bbburst-shape-6" width="15.977224571911673" opacity="0.7754245370593418" transform="matrix(0.9135650377103318,-0.40669266267455584,0.40669266267455584,0.9135650377103318,174.29106476184583,-46.47790517700207)" fill="#ffa6d5"></use><use xlink:href="#bbburst-shape-9" width="35.94256230143069" opacity="0.4513922214620032" transform="matrix(0.982643822386662,-0.18550234048477743,0.18550234048477743,0.982643822386662,232.43440605985023,245.03181259476827)" fill="none" stroke="#7847ff"></use><use xlink:href="#bbburst-shape-8" width="7.271244177287983" opacity="0.983392471745542" transform="matrix(0.9994858933805637,0.03206164270988728,-0.03206164270988728,0.9994858933805637,412.16601133297723,6.94475317374372)" fill="none" stroke="#7847ff"></use><use xlink:href="#bbburst-shape-1" width="22.85535052398266" opacity="0.16155612910253214" transform="matrix(0.7646552983547074,0.6444395042966201,-0.6444395042966201,0.7646552983547074,1016.5378285379094,1.4455357531513755)" fill="#82aaff"></use><use xlink:href="#bbburst-shape-10" width="9.292966330163152" opacity="0.9461110062840811" transform="matrix(0.9919437938926862,-0.12667876600987327,0.12667876600987327,0.9919437938926862,368.1796060926881,-2.327755818577657)" fill="none" stroke="#ffbd9b"></use><use xlink:href="#bbburst-shape-8" width="34.17013944181041" opacity="0.36082799091868334" transform="matrix(0.9189267425119266,0.39442824682877287,-0.39442824682877287,0.9189267425119266,653.4579645713234,-239.4935244497065)" fill="none" stroke="#ffa6d5"></use><use xlink:href="#bbburst-shape-9" width="37.841209648171315" opacity="0.34733214373426124" transform="matrix(0.8389336167869805,-0.5442337610114938,0.5442337610114938,0.8389336167869805,-127.3725805236072,78.93977024955001)" fill="none" stroke="#82aaff"></use><use xlink:href="#bbburst-shape-6" width="34.34703325030303" opacity="0.34198930653543846" transform="matrix(0.9881131577202888,0.15372829128055626,-0.15372829128055626,0.9881131577202888,740.5335921656391,9.54040370181491)" fill="#ffa6d5"></use><use xlink:href="#bbburst-shape-4" width="33.578805644054974" opacity="0.5392060232227138" transform="matrix(0.9445413387833332,-0.3283925384800766,0.3283925384800766,0.9445413387833332,297.4172277159098,-174.77327640356057)" fill="#4772ff"></use><use xlink:href="#bbburst-shape-10" width="18.36444053035956" opacity="0.8091009555117061" transform="matrix(0.7828532122473817,-0.6222064352559815,0.6222064352559815,0.7828532122473817,194.50570990885137,162.00970114188)" fill="none" stroke="#ffa6d5"></use><use xlink:href="#bbburst-shape-10" width="37.017478702391465" opacity="0.19478967627849075" transform="matrix(0.9927859396646227,-0.11990028358695506,0.11990028358695506,0.9927859396646227,317.80621984395384,367.1022764214234)" fill="none" stroke="#82aaff"></use><use xlink:href="#bbburst-shape-8" width="21.254787262571462" opacity="0.7413820736792471" transform="matrix(0.7919521855362478,-0.6105831113160276,0.6105831113160276,0.7919521855362478,39.428298937502944,133.25895766410588)" fill="none" stroke="#ffa6d5"></use><use xlink:href="#bbburst-shape-1" width="10.916091436713828" opacity="0.8758973498050213" transform="matrix(0.9981704076229955,0.060463520785206316,-0.060463520785206316,0.9981704076229955,462.5254924249576,35.07594291754151)" fill="#82aaff"></use><use xlink:href="#bbburst-shape-4" width="32.55869405116435" opacity="0.16014271800334878" transform="matrix(0.948909566074526,0.31554815070327175,-0.31554815070327175,0.948909566074526,797.5576748108617,261.4651314221537)" fill="#4772ff"></use><use xlink:href="#bbburst-shape-6" width="15.379506998797279" opacity="0.7894230236899178" transform="matrix(0.8322048606881213,0.5544682766823226,-0.5544682766823226,0.8322048606881213,591.1262739653571,154.45561384118423)" fill="#4772ff"></use><use xlink:href="#bbburst-shape-10" width="26.182918881932576" opacity="0.6458985313217518" transform="matrix(0.8290097176727311,0.5592341978135624,-0.5592341978135624,0.8290097176727311,453.5181488208916,58.363508368457076)" fill="none" stroke="#7847ff"></use><use xlink:href="#bbburst-shape-8" width="33.16362622719299" opacity="0.45014509352176657" transform="matrix(0.7295806019293466,-0.6838948349625198,0.6838948349625198,0.7295806019293466,343.697963712686,26.659519545751493)" fill="none" stroke="#7847ff"></use><use xlink:href="#bbburst-shape-10" width="8.0967172264845" opacity="0.9339849074178832" transform="matrix(0.7550624504797454,0.6556528775773977,-0.6556528775773977,0.7550624504797454,682.3198650090428,113.97996487416628)" fill="none" stroke="#82aaff"></use><use xlink:href="#bbburst-shape-10" width="12.912227037092602" opacity="0.8558188329297726" transform="matrix(0.7915571518530499,0.611095144269931,-0.611095144269931,0.7915571518530499,668.3778679372523,21.417201422493747)" fill="none" stroke="#ffa6d5"></use><use xlink:href="#bbburst-shape-9" width="14.044619032102895" opacity="0.8570650585116544" transform="matrix(0.9364407642375148,-0.3508257331984916,0.3508257331984916,0.9364407642375148,188.93735721894043,32.83596941353187)" fill="none" stroke="#7847ff"></use><use xlink:href="#bbburst-shape-9" width="37.611907454784856" opacity="0.46633856910644134" transform="matrix(0.9559660194423283,-0.29347737505911764,0.29347737505911764,0.9559660194423283,34.363392128633905,91.31463531659568)" fill="none" stroke="#4772ff"></use><use xlink:href="#bbburst-shape-10" width="41.097881547152234" opacity="0.22745262786681764" transform="matrix(0.999639073826277,-0.026864885626836227,0.026864885626836227,0.999639073826277,270.67947454584737,334.2342481878321)" fill="none" stroke="#4772ff"></use></svg>